<svg width="23" height="16" viewBox="0 0 23 16" fill="none" xmlns="http://www.w3.org/2000/svg">
<path d="M11.4234 4.15082L4.37996 9.57464V15.4285C4.37996 15.5801 4.44435 15.7254 4.55898 15.8326C4.67362 15.9398 4.82909 16 4.9912 16L9.27221 15.9896C9.43379 15.9889 9.58848 15.9283 9.70245 15.8212C9.81642 15.7142 9.8804 15.5692 9.88039 15.4181V11.9996C9.88039 11.848 9.94479 11.7026 10.0594 11.5954C10.1741 11.4883 10.3295 11.4281 10.4916 11.4281H12.9366C13.0987 11.4281 13.2542 11.4883 13.3688 11.5954C13.4835 11.7026 13.5479 11.848 13.5479 11.9996V15.4156C13.5476 15.4908 13.5632 15.5654 13.5938 15.6349C13.6244 15.7044 13.6694 15.7677 13.7262 15.8209C13.783 15.8742 13.8505 15.9164 13.9248 15.9453C13.999 15.9741 14.0787 15.9889 14.1591 15.9889L18.4386 16C18.6007 16 18.7562 15.9398 18.8708 15.8326C18.9854 15.7254 19.0498 15.5801 19.0498 15.4285V9.57071L12.0079 4.15082C11.9251 4.08843 11.822 4.05441 11.7157 4.05441C11.6093 4.05441 11.5062 4.08843 11.4234 4.15082ZM22.5492 7.8373L19.3555 5.37596V0.428619C19.3555 0.314942 19.3072 0.205921 19.2212 0.12554C19.1352 0.0451581 19.0186 0 18.897 0H16.7577C16.6361 0 16.5195 0.0451581 16.4335 0.12554C16.3475 0.205921 16.2992 0.314942 16.2992 0.428619V3.02212L12.8789 0.391115C12.5507 0.138579 12.1388 0.000504822 11.7137 0.000504822C11.2887 0.000504822 10.8768 0.138579 10.5486 0.391115L0.878287 7.8373C0.831866 7.87318 0.793459 7.91725 0.765263 7.967C0.737066 8.01676 0.719631 8.07122 0.713955 8.12728C0.708279 8.18334 0.714472 8.23989 0.73218 8.29371C0.749889 8.34753 0.778766 8.39756 0.817162 8.44094L1.79133 9.54821C1.82963 9.59174 1.87672 9.62778 1.92993 9.65428C1.98314 9.68077 2.04142 9.69719 2.10142 9.7026C2.16143 9.708 2.22198 9.70229 2.27963 9.68579C2.33727 9.66929 2.39086 9.64232 2.43734 9.60643L11.4234 2.68637C11.5062 2.62398 11.6093 2.58996 11.7157 2.58996C11.822 2.58996 11.9251 2.62398 12.0079 2.68637L20.9944 9.60643C21.0408 9.64233 21.0943 9.66933 21.1518 9.68588C21.2094 9.70244 21.2699 9.70823 21.3298 9.70292C21.3898 9.69762 21.448 9.68132 21.5013 9.65495C21.5545 9.62859 21.6016 9.59268 21.64 9.54928L22.6142 8.44201C22.6525 8.39838 22.6813 8.34809 22.6988 8.29404C22.7163 8.23998 22.7222 8.18323 22.7161 8.12704C22.7101 8.07084 22.6922 8.01632 22.6636 7.96659C22.6349 7.91687 22.5961 7.87293 22.5492 7.8373Z" fill="#1E1E1E"/>
</svg>
