<svg width="16" height="17" viewBox="0 0 16 17" fill="none" xmlns="http://www.w3.org/2000/svg">
<path d="M1.95815 15.4063C1.95815 15.8289 2.12747 16.2343 2.42887 16.5332C2.73027 16.8321 3.13905 17 3.56529 17H13.2081C13.6344 17 14.0432 16.8321 14.3446 16.5332C14.646 16.2343 14.8153 15.8289 14.8153 15.4063V4.25H1.95815V15.4063ZM11.0653 6.90625C11.0653 6.76536 11.1217 6.63023 11.2222 6.5306C11.3227 6.43097 11.4589 6.375 11.601 6.375C11.7431 6.375 11.8793 6.43097 11.9798 6.5306C12.0803 6.63023 12.1367 6.76536 12.1367 6.90625V14.3438C12.1367 14.4846 12.0803 14.6198 11.9798 14.7194C11.8793 14.819 11.7431 14.875 11.601 14.875C11.4589 14.875 11.3227 14.819 11.2222 14.7194C11.1217 14.6198 11.0653 14.4846 11.0653 14.3438V6.90625ZM7.851 6.90625C7.851 6.76536 7.90745 6.63023 8.00791 6.5306C8.10838 6.43097 8.24464 6.375 8.38672 6.375C8.5288 6.375 8.66506 6.43097 8.76553 6.5306C8.86599 6.63023 8.92243 6.76536 8.92243 6.90625V14.3438C8.92243 14.4846 8.86599 14.6198 8.76553 14.7194C8.66506 14.819 8.5288 14.875 8.38672 14.875C8.24464 14.875 8.10838 14.819 8.00791 14.7194C7.90745 14.6198 7.851 14.4846 7.851 14.3438V6.90625ZM4.63672 6.90625C4.63672 6.76536 4.69316 6.63023 4.79363 6.5306C4.89409 6.43097 5.03035 6.375 5.17243 6.375C5.31451 6.375 5.45077 6.43097 5.55124 6.5306C5.65171 6.63023 5.70815 6.76536 5.70815 6.90625V14.3438C5.70815 14.4846 5.65171 14.6198 5.55124 14.7194C5.45077 14.819 5.31451 14.875 5.17243 14.875C5.03035 14.875 4.89409 14.819 4.79363 14.7194C4.69316 14.6198 4.63672 14.4846 4.63672 14.3438V6.90625ZM15.351 1.06251H11.3331L11.0184 0.441607C10.9517 0.308866 10.849 0.197207 10.7219 0.119191C10.5947 0.0411758 10.4481 -0.000100538 10.2985 5.82141e-06H6.47154C6.32234 -0.000562966 6.17599 0.0405594 6.04926 0.118662C5.92254 0.196764 5.82057 0.308687 5.75502 0.441607L5.44029 1.06251H1.42243C1.28035 1.06251 1.14409 1.11848 1.04363 1.2181C0.94316 1.31773 0.886719 1.45286 0.886719 1.59376L0.886719 2.65626C0.886719 2.79715 0.94316 2.93228 1.04363 3.03191C1.14409 3.13153 1.28035 3.1875 1.42243 3.1875H15.351C15.4931 3.1875 15.6293 3.13153 15.7298 3.03191C15.8303 2.93228 15.8867 2.79715 15.8867 2.65626V1.59376C15.8867 1.45286 15.8303 1.31773 15.7298 1.2181C15.6293 1.11848 15.4931 1.06251 15.351 1.06251Z" fill="#FF4A3D"/>
</svg>
