<svg width="112" height="112" viewBox="0 0 112 112" fill="none" xmlns="http://www.w3.org/2000/svg">
<path d="M56 0C25.074 0 0 25.074 0 56C0 86.926 25.074 112 56 112C86.926 112 112 86.926 112 56C112 25.074 86.926 0 56 0ZM62.5987 56C62.5987 56 77.2473 70.6487 77.966 71.3673C79.7907 73.192 79.7907 76.146 77.966 77.966C76.1413 79.7907 73.1873 79.7907 71.3673 77.966C70.6487 77.252 56 62.5987 56 62.5987C56 62.5987 41.3513 77.2473 40.6327 77.966C38.808 79.7907 35.854 79.7907 34.034 77.966C32.2093 76.1413 32.2093 73.1873 34.034 71.3673C34.748 70.6487 49.4013 56 49.4013 56C49.4013 56 34.7527 41.3513 34.034 40.6327C32.2093 38.808 32.2093 35.854 34.034 34.034C35.8587 32.2093 38.8127 32.2093 40.6327 34.034C41.3513 34.748 56 49.4013 56 49.4013C56 49.4013 70.6487 34.7527 71.3673 34.034C73.192 32.2093 76.146 32.2093 77.966 34.034C79.7907 35.8587 79.7907 38.8127 77.966 40.6327C77.252 41.3513 62.5987 56 62.5987 56Z" fill="#E20B0B"/>
</svg>
