<svg width="24" height="16" viewBox="0 0 24 16" fill="none" xmlns="http://www.w3.org/2000/svg">
<path d="M8.50177 7.99981C11.0545 7.99981 13.1233 6.20923 13.1233 3.99991C13.1233 1.79058 11.0545 0 8.50177 0C5.94909 0 3.88022 1.79058 3.88022 3.99991C3.88022 6.20923 5.94909 7.99981 8.50177 7.99981ZM11.7369 8.99979H11.1339C10.3323 9.31853 9.44052 9.49977 8.50177 9.49977C7.56302 9.49977 6.67481 9.31853 5.86965 8.99979H5.26669C2.58763 8.99979 0.414062 10.881 0.414062 13.1997V14.4997C0.414062 15.3278 1.19034 15.9996 2.14714 15.9996H12.0726C11.986 15.7871 11.9499 15.5621 11.9788 15.334L12.2243 13.4309L12.2676 13.0841L12.5528 12.8372L15.3438 10.4216C14.4592 9.55602 13.1775 8.99979 11.7369 8.99979ZM13.3724 13.5403L13.1269 15.4465C13.0872 15.7653 13.3977 16.034 13.7624 15.9965L15.9612 15.784L20.9402 11.4747L18.3514 9.23416L13.3724 13.5403ZM23.2691 8.40293L21.9006 7.21858C21.5649 6.92796 21.0161 6.92796 20.6803 7.21858L19.3155 8.3998L19.1674 8.52792L21.7598 10.7685L23.2691 9.46228C23.6048 9.16853 23.6048 8.69667 23.2691 8.40293Z" fill="#1E1E1E"/>
</svg>
