<svg width="25" height="25" viewBox="0 0 25 25" fill="none" xmlns="http://www.w3.org/2000/svg">
<path d="M24.6602 21.6162L19.792 16.748C19.5723 16.5283 19.2744 16.4062 18.9619 16.4062H18.166C19.5137 14.6826 20.3145 12.5146 20.3145 10.1562C20.3145 4.5459 15.7686 0 10.1582 0C4.54785 0 0.00195312 4.5459 0.00195312 10.1562C0.00195312 15.7666 4.54785 20.3125 10.1582 20.3125C12.5166 20.3125 14.6846 19.5117 16.4082 18.1641V18.96C16.4082 19.2725 16.5303 19.5703 16.75 19.79L21.6182 24.6582C22.0771 25.1172 22.8193 25.1172 23.2734 24.6582L24.6553 23.2764C25.1143 22.8174 25.1143 22.0752 24.6602 21.6162ZM10.1582 16.4062C6.70605 16.4062 3.9082 13.6133 3.9082 10.1562C3.9082 6.7041 6.70117 3.90625 10.1582 3.90625C13.6104 3.90625 16.4082 6.69922 16.4082 10.1562C16.4082 13.6084 13.6152 16.4062 10.1582 16.4062Z" fill="#B0AFC7"/>
</svg>
