<svg width="27" height="25" viewBox="0 0 27 25" fill="none" xmlns="http://www.w3.org/2000/svg">
<path d="M8.54279 7.82847L8.80284 7.79055L8.91908 7.55486L12.1071 1.09101C12.4971 0.300998 13.6227 0.304892 14.013 1.09137C14.013 1.09149 14.0131 1.09162 14.0132 1.09174L17.2008 7.55486L17.317 7.79055L17.5771 7.82847L24.71 8.86838L24.7104 8.86843C25.5788 8.99439 25.9283 10.0668 25.2975 10.6811L25.2973 10.6812L20.1368 15.7099L19.9485 15.8934L19.993 16.1526L21.2135 23.2559C21.3622 24.1248 20.4457 24.7803 19.6737 24.3743L19.6736 24.3743L13.2926 21.0202L13.0599 20.8979L12.8273 21.0202L6.44625 24.3743L6.44468 24.3751C5.67619 24.7826 4.75718 24.1279 4.90638 23.2559L6.12687 16.1526L6.17141 15.8934L5.98304 15.7099L0.822548 10.6812L0.822406 10.6811C0.191595 10.0668 0.541028 8.99439 1.40952 8.86843L1.40988 8.86838L8.54279 7.82847Z" stroke="#1E1E1E"/>
</svg>
