<svg width="114" height="114" viewBox="0 0 114 114" fill="none" xmlns="http://www.w3.org/2000/svg">
<path d="M113.128 56.5641C113.128 87.8037 87.8037 113.128 56.5641 113.128C25.3245 113.128 0 87.8037 0 56.5641C0 25.3245 25.3245 0 56.5641 0C87.8037 0 113.128 25.3245 113.128 56.5641ZM50.0214 86.5144L91.9883 44.5475C93.4134 43.1224 93.4134 40.8117 91.9883 39.3867L86.8276 34.2259C85.4025 32.8006 83.0918 32.8006 81.6665 34.2259L47.4409 68.4513L31.4618 52.4721C30.0367 51.0471 27.726 51.0471 26.3007 52.4721L21.1399 57.6329C19.7149 59.058 19.7149 61.3687 21.1399 62.7937L44.8604 86.5142C46.2857 87.9394 48.5961 87.9395 50.0214 86.5144Z" fill="#4CC522"/>
</svg>
