<svg width="17" height="19" viewBox="0 0 17 19" fill="none" xmlns="http://www.w3.org/2000/svg">
<path d="M9.9423 5.04688V0H1.34601C0.774355 0 0.314453 0.39707 0.314453 0.890625V18.1094C0.314453 18.6029 0.774355 19 1.34601 19H15.7878C16.3594 19 16.8193 18.6029 16.8193 18.1094V5.9375H10.9739C10.4065 5.9375 9.9423 5.53672 9.9423 5.04688ZM12.7438 13.0629H9.9423V16.0316C9.9423 16.3597 9.63455 16.6254 9.2546 16.6254H7.87919C7.49923 16.6254 7.19149 16.3597 7.19149 16.0316V13.0629H4.38996C3.77618 13.0629 3.46972 12.4212 3.90555 12.0476L8.04983 8.49619C8.33565 8.2509 8.79727 8.2509 9.0831 8.49619L13.2274 12.0476C13.6636 12.4212 13.3576 13.0629 12.7438 13.0629ZM16.5185 3.89648L12.3106 0.259766C12.1172 0.0927734 11.855 0 11.5799 0H11.3177V4.75H16.8193V4.52363C16.8193 4.28984 16.7119 4.06348 16.5185 3.89648Z" fill="#1E1E1E"/>
</svg>
