<svg width="18" height="24" viewBox="0 0 18 24" fill="none" xmlns="http://www.w3.org/2000/svg">
<path d="M10.4167 6.60938V0.5H1.5625C0.973698 0.5 0.5 0.980664 0.5 1.57812V22.4219C0.5 23.0193 0.973698 23.5 1.5625 23.5H16.4375C17.0263 23.5 17.5 23.0193 17.5 22.4219V7.6875H11.4792C10.8948 7.6875 10.4167 7.20234 10.4167 6.60938ZM13.3022 16.313H10.4167V19.9067C10.4167 20.3038 10.0997 20.6255 9.70833 20.6255H8.29167C7.90031 20.6255 7.58333 20.3038 7.58333 19.9067V16.313H4.69776C4.06557 16.313 3.74992 15.5362 4.19883 15.0839L8.46742 10.7849C8.76182 10.4879 9.23729 10.4879 9.53169 10.7849L13.8003 15.0839C14.2496 15.5362 13.9344 16.313 13.3022 16.313ZM17.1901 5.2168L12.856 0.814453C12.6568 0.612305 12.3867 0.5 12.1034 0.5H11.8333V6.25H17.5V5.97598C17.5 5.69297 17.3893 5.41895 17.1901 5.2168Z" fill="#FEFEFE"/>
</svg>
